# xmcd
#
# Track frame offsets: 
#        150
#        14675
#        27027
#        45580
#        59801
#        72330
#        88334
#        104152
#        121931
#        134377
#        149631
#
# Disc length: 2272 seconds
#
# Revision: 2
# Processed by: cddbd v1.5.2PL0 Copyright (c) Steve Scherf et al.
# Submitted via: ExactAudioCopy v1.0b1
#
DISCID=ad08de0b
DTITLE=Miranda Lambert - Crazy Ex-girlfriend
DYEAR=2007
DGENRE=Country
TTITLE0=Gunpowder and L\\ead
TTITLE1=Dry Town
TTITLE2=Famous in a Small Town
TTITLE3=Crazy Ex-girlfriend
TTITLE4=Love Letters
TTITLE5=Desperation
TTITLE6=More Like Her
TTITLE7=Down
TTITLE8=Guilty in Here
TTITLE9=Getting Ready
TTITLE10=Easy From Now On
EXTD=YEAR: 2007
EXTT0=
EXTT1=
EXTT2=
EXTT3=
EXTT4=
EXTT5=
EXTT6=
EXTT7=
EXTT8=
EXTT9=
EXTT10=
PLAYORDER=
